# xmcd
#
# Track frame offsets: 
#        183
#        10195
#        21798
#        33328
#        43973
#        54905
#        72903
#        85178
#        96553
#        105133
#        115220
#        127968
#        137320
#        148240
#        159723
#        171458
#        188410
#        200380
#
# Disc length: 2804 seconds
#
# Revision: 1
# Processed by: cddbd v1.5.1PL2 Copyright (c) Steve Scherf et al.
# Submitted via: ExactAudioCopy v0.95a5
#
DISCID=ef0af212
DTITLE=Dave Dudley - Cowboy Boots
DYEAR=1991
DGENRE=Country
TTITLE0=Cowboy Boots
TTITLE1=Six Days On The Road
TTITLE2=Ain´t That A Shame
TTITLE3=The Night You Broke The News
TTITLE4=My Sunny Overgrown Country Town
TTITLE5=Rooster Hill
TTITLE6=How Come It Took So Long To Say Goodbye
TTITLE7=Sentimental Journey
TTITLE8=Sugarland U.S.A.
TTITLE9=Truck Drivin´ Son-Of-A-Gun
TTITLE10=Salvation Arms
TTITLE11=Comin´ Down
TTITLE12=One More Plane
TTITLE13=My Home Town Made A Change
TTITLE14=Mary-Lou You Took The Party With You
TTITLE15=The Tavern Telephone
TTITLE16=Homer And Cole
TTITLE17=Fly Away Again
EXTD=ID3G: 2
EXTT0=
EXTT1=
EXTT2=
EXTT3=
EXTT4=
EXTT5=
EXTT6=
EXTT7=
EXTT8=
EXTT9=
EXTT10=
EXTT11=
EXTT12=
EXTT13=
EXTT14=
EXTT15=
EXTT16=
EXTT17=
PLAYORDER=
